<?xml version="1.0" encoding="utf-8"?>
<!-- Generator: Adobe Illustrator 16.0.0, SVG Export Plug-In . SVG Version: 6.00 Build 0)  -->
<!DOCTYPE svg PUBLIC "-//W3C//DTD SVG 1.1//EN" "http://www.w3.org/Graphics/SVG/1.1/DTD/svg11.dtd">
<svg version="1.1" id="Layer_1" xmlns="http://www.w3.org/2000/svg" xmlns:xlink="http://www.w3.org/1999/xlink" x="0px" y="0px"
	 width="24px" height="24px" viewBox="0 0 24 24" enable-background="new 0 0 24 24" xml:space="preserve">
<path fill="#F5ADC5" d="M19,0H2C0.9,0,0,0.9,0,2v11.3C0,14.4,0.9,15,2,15v4.4L6.1,15H19c1.1,0,2-0.5,2-1.6V2C21,0.9,20,0,19,0z"/>
<path fill="#F49CB0" d="M3,14H2c-0.4,0-1-0.1-1-0.6V2c0-0.6,0.5-1,1-1h17c0.5,0,1,0.5,1,1v11.3c0,0.601-0.8,0.601-1,0.601H5.7
	L3,16.8V14z"/>
<path fill="#F49CB0" d="M4,13H2V2h17v11H5.2L4,14.3V13z"/>
<path fill="#FFFFFF" d="M17,11H4v-1h13V11z M17,8H4v1h13V8z M17,6H4v1h13V6z M17,4H4v1h13V4z"/>
<path fill="#2E70B6" d="M22,7.9H8c-1.1,0-2,0.7-2,1.8v9c0,1.1,0.9,2,2,2v3.2l3.1-3H22c1.1,0,2-1.101,2-2.2v-9
	C24,8.6,23.1,7.9,22,7.9z"/>
<path fill="#8BBDEF" d="M9,19.9H8c-0.6,0-1-0.7-1-1.2v-9c0-0.6,0.4-0.8,1-0.8h14c0.6,0,1,0.2,1,0.8v9c0,0.6-0.4,1.2-1,1.2H10.6
	L9,21.4V19.9z"/>
<path fill="#2179C7" d="M10,18.9H8v-9h14v9H10"/>
<path fill="#FFFFFF" d="M20,16.9H10v-1h10V16.9z M20,13.9H10v1h10V13.9z M20,11.9H10v1h10V11.9z"/>
</svg>
